<!DOCTYPE svg PUBLIC "-//W3C//DTD SVG 1.1//EN" "http://www.w3.org/Graphics/SVG/1.1/DTD/svg11.dtd">
<!-- Uploaded to: SVG Repo, www.svgrepo.com, Transformed by: SVG Repo Mixer Tools -->
<svg width="800px" height="800px" viewBox="0 0 1024 1024" class="icon" version="1.1" xmlns="http://www.w3.org/2000/svg" fill="#000000">
<g id="SVGRepo_bgCarrier" stroke-width="0"/>
<g id="SVGRepo_tracerCarrier" stroke-linecap="round" stroke-linejoin="round"/>
<g id="SVGRepo_iconCarrier">
<path d="M892.315 249.814a23.044 23.044 0 0 0-16.701-14.8 23.042 23.042 0 0 0-21.434 6.207l-94.595 94.6-54.508-10.899-10.901-54.508 94.595-94.588a23.05 23.05 0 0 0 6.209-21.432 23.043 23.043 0 0 0-14.798-16.703c-20.031-7.139-41.04-10.688-62.049-10.688-47.291-0.021-94.84 18.065-130.818 54.048-35.987 35.98-54.073 83.528-54.055 130.816 0 16.07 2.114 32.132 6.288 47.769L309.209 589.973c-2.377-0.215-4.69-0.465-7.458-0.476-76.585 0.039-138.713 62.167-138.75 138.75 0.037 76.585 62.165 138.713 138.75 138.75 76.583-0.037 138.711-62.165 138.748-138.75-0.009-2.763-0.261-5.081-0.474-7.458l230.339-230.341a185.253 185.253 0 0 0 47.772 6.288c47.283 0.021 94.826-18.063 130.809-54.048 35.989-35.985 54.073-83.537 54.055-130.83-0.001-21.009-3.551-42.018-10.685-62.044z m-76.074 160.17c-26.985 26.978-62.481 40.483-98.105 40.501-15.799 0-31.568-2.673-46.525-8.004a23.143 23.143 0 0 0-24.117 5.43L399.42 695.987a23.075 23.075 0 0 0-6.554 19.527c0.819 5.696 1.411 9.791 1.385 12.733-0.092 50.965-41.537 92.407-92.5 92.5-50.965-0.093-92.408-41.535-92.502-92.5 0.095-50.963 41.537-92.405 92.502-92.5 2.933-0.028 7.026 0.569 12.756 1.387a23.06 23.06 0 0 0 19.506-6.556l248.073-248.076a23.147 23.147 0 0 0 5.43-24.117c-5.332-14.955-8.006-30.722-8.006-46.521 0.018-35.626 13.528-71.128 40.508-98.112 26.978-26.975 62.482-40.483 98.115-40.501 2.408 0 4.787 0.486 7.192 0.611l-72.601 72.596a23.123 23.123 0 0 0-6.325 20.889l16.349 81.761a23.091 23.091 0 0 0 18.142 18.142l81.761 16.352a23.133 23.133 0 0 0 20.886-6.325l72.601-72.606c0.125 2.403 0.611 4.78 0.611 7.187-0.018 35.636-13.528 71.139-40.508 98.126z" fill="#6b6c72"/>
<path d="M301.751 751.374v-23.125h-0.002l0.002-0.002v46.25c25.579-0.062 46.185-20.669 46.248-46.248-0.062-25.579-20.669-46.188-46.248-46.25-25.579 0.062-46.188 20.671-46.25 46.25 0.062 25.579 20.671 46.185 46.25 46.248v-23.123z" fill="#FF9966"/>
</g>
</svg>